/* XPM */
static char * kb_xpm[] = {
"10 10 25 1",
" 	c None",
".	c #BD93F9",
"+	c #0E0A12",
"@	c #9C79CE",
"#	c #B58DEF",
"$	c #332844",
"%	c #493960",
"&	c #BB91F7",
"*	c #B18AEA",
"=	c #2B2239",
"-	c #53416E",
";	c #BC92F8",
">	c #8C6CB8",
",	c #231B2E",
"'	c #5E497C",
")	c #5D487B",
"!	c #44355A",
"~	c #1C1525",
"{	c #AA84E0",
"]	c #634D82",
"^	c #1C1626",
"/	c #624C81",
"(	c #AB85E1",
"_	c #614C80",
":	c #1D1727",
"..........",
"..+@.#$%&.",
"..+@*=-;..",
"..+>,'....",
"..++).....",
"..+!~{....",
"..+@]^{...",
"..+@./^(..",
"..+@.._:(.",
".........."};
