/* XPM */
static char * tp_xpm[] = {
"10 10 7 1",
" 	c None",
".	c #BD93F9",
"+	c #B78EF1",
"@	c #000000",
"#	c #A27ED5",
"$	c #69528B",
"%	c #554270",
"..........",
"..........",
".+@@@@@@#.",
"....$%....",
"....$%....",
"....$%....",
"....$%....",
"....$%....",
"....$%....",
".........."};
